<svg xmlns="http://www.w3.org/2000/svg" xmlns:xlink="http://www.w3.org/1999/xlink" width="600" height="600" viewBox="0 0 600 600">
  <defs>
    <clipPath id="clip-path">
      <rect id="Rectangle_387" data-name="Rectangle 387" width="600" height="600" transform="translate(2805 748)" fill="#fff" stroke="#707070" stroke-width="1"/>
    </clipPath>
  </defs>
  <g id="Mask_Group_16" data-name="Mask Group 16" transform="translate(-2805 -748)" clip-path="url(#clip-path)">
    <g id="communication" transform="translate(2815.591 748)">
      <path id="Path_644" data-name="Path 644" d="M508.036,440.929c-19.276,13.939-41.127,29.741-57.551,65.7l-.336.728c-13.168,28.844-33.068,72.418-94.065,72.418-40.552,0-63.805-33.385-63.805-91.6V321.188c0-77.541,60.952-140.625,135.873-140.625,39.544,0,74.908,14.214,99.576,40.013,24.16,25.255,36.713,60.045,36.306,100.6-.809,79.848-26.385,98.337-56,119.752Zm0,0" transform="translate(3.45 8.509)" fill="#ffddce"/>
      <path id="Path_645" data-name="Path 645" d="M11.191,56.986V221.855c0,25.3,19.812,45.8,44.255,45.8H158.508l82.423,66.975-16.224-66.975h80.76c24.443,0,44.255-20.508,44.255-45.8V56.986c0-25.291-19.812-45.795-44.255-45.795H55.446c-24.443,0-44.255,20.5-44.255,45.795Zm0,0" transform="translate(0.132 0.528)" fill="#3e83a8"/>
      <path id="Path_646" data-name="Path 646" d="M539.229,220.839c-26.818-28.047-65.039-43.488-107.626-43.488a141.786,141.786,0,0,0-70.427,18.6V57.513C361.176,25.8,336.242,0,305.6,0H55.578C24.929,0,0,25.8,0,57.513V222.382C0,254.1,24.934,279.9,55.578,279.9h99.151l79.34,64.476a11.021,11.021,0,0,0,13.155.613,11.907,11.907,0,0,0,4.821-12.68L239.35,279.9h53.119a155.658,155.658,0,0,0-8.064,49.8V496.678c0,64.7,28.088,103.322,75.133,103.322,68.167,0,90.787-49.53,104.3-79.115l.336-.737c15.145-33.151,34.8-47.36,53.813-61.111,30.83-22.3,59.953-43.359,60.824-129.226.438-43.762-13.248-81.445-39.579-108.971ZM224.837,256.462a11.186,11.186,0,0,0-8.926,4.509,12.031,12.031,0,0,0-2.057,10.057l8.179,33.765-56.4-45.831a11.1,11.1,0,0,0-7-2.5H55.573c-18.157,0-32.927-15.289-32.927-34.08V57.513c0-18.787,14.769-34.076,32.927-34.076H305.6c18.157,0,32.931,15.289,32.931,34.076V222.381c0,18.791-14.774,34.08-32.931,34.08Zm331.324,73.1c-.748,73.814-22.992,89.9-51.159,110.271-19.418,14.04-43.591,31.517-61.3,70.285l-.336.742c-12.664,27.727-30,65.7-83.829,65.7-45.666,0-52.482-50.052-52.482-79.884V329.7a131.255,131.255,0,0,1,10.2-51.082c24.739-5.489,43.41-28.061,43.892-55.156A120.331,120.331,0,0,1,431.6,200.789c36.492,0,69,12.973,91.53,36.539,21.984,22.98,33.4,54.877,33.028,92.235Zm0,0" transform="translate(0 0.001)"/>
      <path id="Path_647" data-name="Path 647" d="M478.3,298.629a11.148,11.148,0,0,0,15.212,5.177,11.917,11.917,0,0,0,5-15.747,84.435,84.435,0,0,0-14.836-21.345c-16.645-17.4-40.349-26.994-66.756-26.994-24.014,0-47.758,12.241-65.146,33.577-16.875,20.7-24.651,46.971-20.8,70.285,1.438,8.67,9.417,12.447,18.666,16.818,10.713,5.058,22.855,10.789,29.092,25.639,7.741,18.439,4.2,33.554-14.03,59.907a11.989,11.989,0,0,0,2.614,16.351,11.03,11.03,0,0,0,6.582,2.188,11.186,11.186,0,0,0,9.218-4.9c19.126-27.64,29.229-52.313,16.384-82.892-9.7-23.1-28.211-31.837-40.455-37.619-1.774-.838-4.375-2.065-6.206-3.072-1.4-15.7,4.529-33.224,16.247-47.6,13.075-16.045,30.512-25.25,47.833-25.25,20.312,0,38.3,7.118,50.659,20.05A60.86,60.86,0,0,1,478.3,298.629Zm0,0" transform="translate(3.896 11.296)"/>
      <path id="Path_648" data-name="Path 648" d="M489.8,319.537a11.528,11.528,0,0,0-11.324,11.719c0,25.424-3.941,45.2-23.173,59.111a11.98,11.98,0,0,0-2.8,16.319,11.2,11.2,0,0,0,9.289,5.008,11,11,0,0,0,6.476-2.115c28.946-20.929,32.851-51.338,32.851-78.323A11.528,11.528,0,0,0,489.8,319.537Zm0,0" transform="translate(5.318 15.057)"/>
      <path id="Path_649" data-name="Path 649" d="M78.638,86.109h210.45a11.726,11.726,0,0,0,0-23.437H78.638a11.726,11.726,0,0,0,0,23.437Zm0,0" transform="translate(0.795 2.954)"/>
      <path id="Path_650" data-name="Path 650" d="M286.636,125.344a11.2,11.2,0,0,0-8.006,3.433,12.006,12.006,0,0,0,0,16.571,11.051,11.051,0,0,0,16.012,0,12.006,12.006,0,0,0,0-16.571A11.222,11.222,0,0,0,286.636,125.344Zm0,0" transform="translate(3.25 5.907)"/>
      <path id="Path_651" data-name="Path 651" d="M78.638,148.781H243.794a11.726,11.726,0,0,0,0-23.437H78.638a11.726,11.726,0,0,0,0,23.437Zm0,0" transform="translate(0.795 5.907)"/>
      <path id="Path_652" data-name="Path 652" d="M288.561,188.016H123.238a11.726,11.726,0,0,0,0,23.437H288.561a11.726,11.726,0,0,0,0-23.437Zm0,0" transform="translate(1.321 8.86)"/>
      <path id="Path_653" data-name="Path 653" d="M79.423,188.016h-.951a11.726,11.726,0,0,0,0,23.437h.951a11.726,11.726,0,0,0,0-23.437Zm0,0" transform="translate(0.793 8.86)"/>
    </g>
  </g>
</svg>
