<svg xmlns="http://www.w3.org/2000/svg" xmlns:xlink="http://www.w3.org/1999/xlink" width="440" height="380" viewBox="0 0 440 380">
  <defs>
    <clipPath id="clip-path">
      <rect id="Rectangle_384" data-name="Rectangle 384" width="440" height="380" transform="translate(2363 4365.339)" fill="#fff" stroke="#707070" stroke-width="1"/>
    </clipPath>
  </defs>
  <g id="Mask_Group_13" data-name="Mask Group 13" transform="translate(-2363 -4365.339)" clip-path="url(#clip-path)">
    <g id="browser" transform="translate(2383.178 4364.723)">
      <path id="Path_591" data-name="Path 591" d="M382.069,51.678V260.4c0,13.562-11.528,24.556-25.749,24.556H60.2c-14.221,0-25.749-10.994-25.749-24.556V51.678Z" transform="translate(10.61 15.851)" fill="#3cadc9"/>
      <path id="Path_592" data-name="Path 592" d="M169.423,228.518c-6.037-22.293-22.651-40.616-44.912-49.53a80.627,80.627,0,0,0-68.528,4.1V68.9H339.228V228.518Z" transform="translate(21.264 23.182)" fill="#e2e7f6"/>
      <path id="Path_593" data-name="Path 593" d="M319.852,68.9H55.984V183.09c36.95-20.3,84.163-8.214,105.476,27.012H319.852Z" transform="translate(21.264 23.182)" fill="#fff"/>
      <ellipse id="Ellipse_120" data-name="Ellipse 120" cx="51.499" cy="49.112" rx="51.499" ry="49.112" transform="translate(167.371 116.641)" fill="#ccc"/>
      <path id="Path_594" data-name="Path 594" d="M199.908,96.889c-20.494-15.522-49.937-13.917-68.443,3.731a47.446,47.446,0,0,0-3.913,65.271h59.481c7.111,0,12.875-5.5,12.875-12.278Z" transform="translate(51.149 30.557)" fill="#ddd"/>
      <path id="Path_595" data-name="Path 595" d="M382.069,70H34.452V33.169C34.452,19.607,45.98,8.613,60.2,8.613H356.32c14.221,0,25.749,10.994,25.749,24.556Z" transform="translate(10.61 -2.474)" fill="#3b5892"/>
      <path id="Path_596" data-name="Path 596" d="M351.814,55.19c7.11,0,12.875-5.5,12.875-12.278V10.05a26.668,26.668,0,0,0-8.369-1.437H60.2c-14.221,0-25.749,10.994-25.749,24.556V55.19Z" transform="translate(10.61 -2.474)" fill="#3cadc9"/>
      <path id="Path_597" data-name="Path 597" d="M55.87,218.162,13.943,258.146a16.963,16.963,0,0,0-5.33,12.278c0,9.588,8.151,17.361,18.2,17.361A18.666,18.666,0,0,0,39.7,282.7l42.716-40.736" transform="translate(-2.176 86.695)" fill="#4c6cb5"/>
      <ellipse id="Ellipse_121" data-name="Ellipse 121" cx="77.248" cy="73.668" rx="77.248" ry="73.668" transform="translate(38.624 196.449)" fill="#5e87ca"/>
      <ellipse id="Ellipse_122" data-name="Ellipse 122" cx="51.499" cy="49.112" rx="51.499" ry="49.112" transform="translate(64.374 221.005)" fill="#f2f2f2"/>
      <path id="Path_598" data-name="Path 598" d="M139.07,234.183h-80.4a47.386,47.386,0,0,1,1.571-63.177v14.065h86.377A47.335,47.335,0,0,1,139.07,234.183Z" transform="translate(17.004 66.629)" fill="#3cadc9"/>
      <path id="Path_599" data-name="Path 599" d="M142.361,190.036H55.984V175.978a52.945,52.945,0,0,1,47.3-15.939c17.6,2.864,32.384,14.215,39.078,30Z" transform="translate(21.264 61.664)" fill="#e2e7f6"/>
      <g id="Group_653" data-name="Group 653" transform="translate(77.248 24.556)">
        <ellipse id="Ellipse_123" data-name="Ellipse 123" cx="12.875" cy="12.278" rx="12.875" ry="12.278" fill="#3b5892"/>
        <ellipse id="Ellipse_124" data-name="Ellipse 124" cx="12.875" cy="12.278" rx="12.875" ry="12.278" transform="translate(38.624)" fill="#3b5892"/>
        <ellipse id="Ellipse_125" data-name="Ellipse 125" cx="12.875" cy="12.278" rx="12.875" ry="12.278" transform="translate(77.248)" fill="#3b5892"/>
        <path id="Path_600" data-name="Path 600" d="M159.34,25.839H288.087V38.117H159.34Z" transform="translate(-4.843 -19.7)" fill="#3b5892"/>
      </g>
      <path id="Path_601" data-name="Path 601" d="M137.808,103.356v49.112l51.5-24.556Z" transform="translate(61.751 37.842)" fill="#b52f28"/>
      <path id="Path_602" data-name="Path 602" d="M198.1,181.972v-61.39l45.062,42.973H217.41Z" transform="translate(91.583 45.172)" fill="#3b5892"/>
      <path id="Path_603" data-name="Path 603" d="M198.1,193.792h77.248V206.07H198.1Z" transform="translate(91.583 76.325)" fill="#9da1bf"/>
      <path id="Path_604" data-name="Path 604" d="M155.034,193.792h51.5V206.07h-51.5Z" transform="translate(70.274 76.325)" fill="#9da1bf"/>
      <path id="Path_605" data-name="Path 605" d="M371.236,4.306H75.117C57.35,4.327,42.952,18.058,42.931,35V243.777A76.172,76.172,0,0,0,46.239,311.7L11.523,344.807a22.737,22.737,0,0,0,0,33.234,25.5,25.5,0,0,0,34.849,0l34.716-33.1a87.127,87.127,0,0,0,63.991,5.685,82.607,82.607,0,0,0,49.261-39.364H371.236c17.767-.02,32.166-13.751,32.187-30.7V35C403.4,18.058,389,4.327,371.236,4.306ZM75.117,16.585H371.236c10.666,0,19.312,8.246,19.312,18.417V65.7H55.805V35C55.805,24.83,64.452,16.585,75.117,16.585ZM37.272,369.363a12.2,12.2,0,0,1-12.826,2.425,11.237,11.237,0,0,1-7.265-10.368,10.911,10.911,0,0,1,3.444-7.938l32.734-31.211a82.431,82.431,0,0,0,16.647,15.875Zm82.907-27.411c-39.108,0-70.811-30.234-70.811-67.529s31.7-67.529,70.811-67.529,70.811,30.234,70.811,67.529c-.046,37.277-31.722,67.485-70.811,67.529Zm0-147.337a86.76,86.76,0,0,0-32.187,6.139V102.531H358.361V249.867H199.77c-11.2-32.9-43.319-55.2-79.592-55.251ZM371.236,298.979H199.77a73.54,73.54,0,0,0,3-36.834H364.8a6.293,6.293,0,0,0,6.437-6.139V96.392a6.293,6.293,0,0,0-6.437-6.139H81.555a6.293,6.293,0,0,0-6.437,6.139V207.281A83.227,83.227,0,0,0,55.805,223.5V77.975H390.548V280.562C390.548,290.734,381.9,298.979,371.236,298.979Z" transform="translate(-4.307 -4.306)"/>
      <ellipse id="Ellipse_126" data-name="Ellipse 126" cx="12.875" cy="12.278" rx="12.875" ry="12.278" transform="translate(77.248 24.556)"/>
      <ellipse id="Ellipse_127" data-name="Ellipse 127" cx="12.875" cy="12.278" rx="12.875" ry="12.278" transform="translate(115.872 24.556)"/>
      <ellipse id="Ellipse_128" data-name="Ellipse 128" cx="12.875" cy="12.278" rx="12.875" ry="12.278" transform="translate(154.497 24.556)"/>
      <path id="Path_606" data-name="Path 606" d="M159.34,25.839H288.087V38.117H159.34Z" transform="translate(72.405 4.856)"/>
      <path id="Path_607" data-name="Path 607" d="M169.9,81.823c-32,0-57.936,24.737-57.936,55.251s25.939,55.251,57.936,55.251,57.936-24.737,57.936-55.251c-.035-30.5-25.954-55.217-57.936-55.251Zm0,98.224c-24.887,0-45.062-19.24-45.062-42.973S145.018,94.1,169.9,94.1s45.062,19.24,45.062,42.973c-.028,23.722-20.186,42.946-45.062,42.973Z" transform="translate(48.965 28.679)"/>
      <path id="Path_608" data-name="Path 608" d="M136.559,99.958a6.082,6.082,0,0,0-3.058,5.224v49.112a6.079,6.079,0,0,0,3.037,5.247,6.709,6.709,0,0,0,6.277.279l51.5-24.556a6.016,6.016,0,0,0,0-10.989l-51.5-24.556A6.751,6.751,0,0,0,136.559,99.958Zm9.817,15.157,30.668,14.623-30.668,14.623Z" transform="translate(59.62 36.015)"/>
      <path id="Path_609" data-name="Path 609" d="M101,155.034c-32,0-57.936,24.737-57.936,55.251S69,265.536,101,265.536s57.936-24.737,57.936-55.251C158.9,179.784,132.984,155.067,101,155.034Zm0,12.278a45.683,45.683,0,0,1,36.925,18.417H68.814v-5.458A45.986,45.986,0,0,1,101,167.312ZM77.91,247.119h46.182A46.493,46.493,0,0,1,77.91,247.119Zm60.016-12.278H64.076a40.927,40.927,0,0,1-5.729-38.3,6.488,6.488,0,0,0,4.03,1.461h81.754a41.036,41.036,0,0,1-6.238,36.834Z" transform="translate(14.871 59.832)"/>
      <path id="Path_610" data-name="Path 610" d="M204.781,118.074a6.668,6.668,0,0,0-7.015-1.33,6.144,6.144,0,0,0-3.974,5.67V183.8a6.143,6.143,0,0,0,3.973,5.67,6.668,6.668,0,0,0,7.016-1.33l17.426-16.618h23.084a6.447,6.447,0,0,0,5.945-3.789,5.933,5.933,0,0,0-1.394-6.691Zm14.761,41.174a6.6,6.6,0,0,0-4.55,1.8l-8.324,7.939V137.233l23.084,22.015Z" transform="translate(89.452 43.34)"/>
      <path id="Path_611" data-name="Path 611" d="M198.1,193.792h77.248V206.07H198.1Z" transform="translate(91.583 76.325)"/>
      <path id="Path_612" data-name="Path 612" d="M155.034,193.792h51.5V206.07h-51.5Z" transform="translate(70.274 76.325)"/>
    </g>
  </g>
</svg>
