<svg xmlns="http://www.w3.org/2000/svg" xmlns:xlink="http://www.w3.org/1999/xlink" width="650" height="600" viewBox="0 0 650 600">
  <defs>
    <clipPath id="clip-path">
      <rect id="Rectangle_386" data-name="Rectangle 386" width="650" height="600" transform="translate(1975 708)" fill="#fff" stroke="#707070" stroke-width="1"/>
    </clipPath>
  </defs>
  <g id="Mask_Group_17" data-name="Mask Group 17" transform="translate(-1975 -708)" clip-path="url(#clip-path)">
    <g id="practice" transform="translate(1984.14 708)">
      <path id="Path_654" data-name="Path 654" d="M420.479,512.573l9.92-5.2c80.9-42.43,134.59-120.008,143.512-207.376.976-9.557-7.143-17.737-17.245-17.378l-.459.016c-10.3.368-19.015,7.125-21.432,16.552L524.86,337.85c-10.037,39.144-37.885,72.021-75.993,89.716-15.729,7.3-33.544-5.412-30.532-21.793L426.16,363.2c1.476-8.029-4.059-15.711-12.474-17.311a16.179,16.179,0,0,0-16.425,6.629L340.55,436.658l.957,23.674L396.429,512.5Z" transform="translate(48.479 24.019)" fill="#ffddce"/>
      <path id="Path_655" data-name="Path 655" d="M401.605,343.293l-7.826,42.574c-2.169,11.8,6.47,21.7,17.35,23.579a19.355,19.355,0,0,1-.325-8.607l7.826-42.574c1.476-8.029-4.059-15.711-12.474-17.311a16.6,16.6,0,0,0-4.328-.238,14.337,14.337,0,0,1-.223,2.577Z" transform="translate(56.008 28.954)" fill="#ffcbbe"/>
      <path id="Path_656" data-name="Path 656" d="M551.919,282.62a15.186,15.186,0,0,1-.033,2.4c-8.921,87.368-62.608,164.945-143.512,207.376l-9.92,5.2-22.784-.073,15.76,14.968,24.05.077,9.92-5.2c80.9-42.43,134.59-120.008,143.512-207.376.967-9.476-7.009-17.589-16.992-17.374Z" transform="translate(53.478 24.02)" fill="#ffcbbe"/>
      <path id="Path_657" data-name="Path 657" d="M398.3,555.773l36.742-34.9a8.534,8.534,0,0,0,0-12.507L341.525,419.55a9.664,9.664,0,0,0-13.169,0l-36.742,34.9Z" transform="translate(41.512 35.438)" fill="#80b4fb"/>
      <path id="Path_658" data-name="Path 658" d="M431.379,508.367l-93.515-88.819a9.664,9.664,0,0,0-13.169,0l-7.365,6.995,84.221,79.992a8.534,8.534,0,0,1,0,12.507l-22.794,21.648,15.878,15.081,36.742-34.9A8.534,8.534,0,0,0,431.379,508.367Z" transform="translate(45.173 35.438)" fill="#61a2f9"/>
      <path id="Path_659" data-name="Path 659" d="M161.613,512.573l-9.92-5.2C70.789,464.94,17.1,387.362,8.181,300c-.976-9.557,7.143-17.738,17.245-17.378l.459.016c10.3.368,19.015,7.125,21.432,16.552l9.915,38.666C67.269,377,95.117,409.872,133.225,427.568c15.729,7.3,33.544-5.412,30.532-21.793L155.931,363.2c-1.476-8.029,4.059-15.711,12.474-17.311a16.179,16.179,0,0,1,16.425,6.629l56.712,84.141-.957,23.674L185.663,512.5Z" transform="translate(1.153 24.019)" fill="#ffddce"/>
      <path id="Path_660" data-name="Path 660" d="M9.685,296.715l.459.016c10.3.368,19.015,7.124,21.432,16.552l9.915,38.666c10.037,39.144,37.885,72.021,75.993,89.716,12.583,5.843,26.488-1.131,30.012-12.538a22.1,22.1,0,0,1-14.284-1.56C95.1,409.872,67.255,377,57.218,337.851L47.3,299.185C44.886,289.759,36.174,283,25.872,282.634l-.459-.016c-8.93-.319-16.3,6.041-17.217,14.122.492-.023.986-.042,1.489-.025Z" transform="translate(1.166 24.019)" fill="#ffcbbe"/>
      <path id="Path_661" data-name="Path 661" d="M166.431,347.584a16.176,16.176,0,0,0-16.425-6.629,15.286,15.286,0,0,0-12.667,13.815,16.031,16.031,0,0,1,13.362,6.912l56.712,84.139-.956,23.674-40.081,38.068.887,0L222.185,455.4l.956-23.674Z" transform="translate(19.551 28.953)" fill="#ffcbbe"/>
      <path id="Path_662" data-name="Path 662" d="M172.917,555.773l-36.742-34.9a8.534,8.534,0,0,1,0-12.507l93.515-88.819a9.664,9.664,0,0,1,13.169,0l36.742,34.9Z" transform="translate(18.997 35.438)" fill="#80b4fb"/>
      <path id="Path_663" data-name="Path 663" d="M142.968,527.329,227.76,446.8a9.664,9.664,0,0,1,13.169,0l23.364,22.191,15.308-14.54-36.742-34.9a9.664,9.664,0,0,0-13.169,0l-93.515,88.82a8.534,8.534,0,0,0,0,12.507Z" transform="translate(18.997 35.438)" fill="#61a2f9"/>
      <g id="Group_656" data-name="Group 656" transform="translate(195.077 8.789)">
        <path id="Path_664" data-name="Path 664" d="M394.934,86.366l12.306,6.479a9.333,9.333,0,0,1,5.1,8.22v30.58a9.333,9.333,0,0,1-5.1,8.22l-12.306,6.479a9.672,9.672,0,0,0-3.772,3.52l-19.25,31.669a9.022,9.022,0,0,0-1.324,4.863l.246,13.362a9.311,9.311,0,0,1-4.946,8.3L338,223.35a10.347,10.347,0,0,1-10.043-.083L315.9,216.385a10.3,10.3,0,0,0-5.1-1.342H272.3a10.3,10.3,0,0,0-5.1,1.342l-12.061,6.882a10.347,10.347,0,0,1-10.043.083l-27.883-15.289a9.312,9.312,0,0,1-4.946-8.3l.246-13.362a9.043,9.043,0,0,0-1.324-4.863l-19.25-31.669a9.672,9.672,0,0,0-3.772-3.52l-12.306-6.479a9.333,9.333,0,0,1-5.1-8.22V101.066a9.333,9.333,0,0,1,5.1-8.22l12.306-6.479a9.672,9.672,0,0,0,3.772-3.52l19.25-31.669a9.022,9.022,0,0,0,1.324-4.863l-.246-13.362a9.311,9.311,0,0,1,4.946-8.3L245.1,9.361a10.347,10.347,0,0,1,10.043.083l12.061,6.882a10.3,10.3,0,0,0,5.1,1.342h38.5a10.3,10.3,0,0,0,5.1-1.342l12.061-6.882A10.347,10.347,0,0,1,338,9.361l27.883,15.289a9.313,9.313,0,0,1,4.946,8.3l-.246,13.362a9.043,9.043,0,0,0,1.324,4.863l19.25,31.669A9.686,9.686,0,0,0,394.934,86.366ZM291.553,71.991c-25.8,0-46.71,19.863-46.71,44.365s20.913,44.365,46.71,44.365,46.71-19.863,46.71-44.365S317.35,71.991,291.553,71.991Z" transform="translate(-170.768 -8.1)" fill="#fdbf43"/>
        <g id="Group_655" data-name="Group 655" transform="translate(146.924)">
          <path id="Path_665" data-name="Path 665" d="M388.932,92.846l-12.306-6.479a9.672,9.672,0,0,1-3.772-3.52L353.6,51.178a9.022,9.022,0,0,1-1.324-4.863l.246-13.362a9.311,9.311,0,0,0-4.946-8.3L319.7,9.359a10.349,10.349,0,0,0-10.045.083L299.383,15.3l17.047,9.348a9.314,9.314,0,0,1,4.946,8.3l-.246,13.362a9.044,9.044,0,0,0,1.324,4.863L341.7,82.846a9.672,9.672,0,0,0,3.772,3.52l12.306,6.479a9.333,9.333,0,0,1,5.1,8.22v30.58a9.333,9.333,0,0,1-5.1,8.22l-12.306,6.479a9.672,9.672,0,0,0-3.772,3.52l-19.25,31.669a9.022,9.022,0,0,0-1.324,4.863l.246,13.362a9.311,9.311,0,0,1-4.946,8.3l-17.047,9.348,10.268,5.859a10.349,10.349,0,0,0,10.045.083l27.883-15.289a9.314,9.314,0,0,0,4.946-8.3l-.246-13.362a9.043,9.043,0,0,1,1.324-4.863l19.251-31.669a9.672,9.672,0,0,1,3.772-3.52l12.306-6.479a9.333,9.333,0,0,0,5.1-8.22v-30.58a9.338,9.338,0,0,0-5.1-8.221Z" transform="translate(-299.383 -8.1)" fill="#efa30a"/>
        </g>
      </g>
      <g id="Group_661" data-name="Group 661" transform="translate(63.759 175.018)">
        <g id="Group_658" data-name="Group 658" transform="translate(336.707)">
          <path id="Path_666" data-name="Path 666" d="M505.993,215.576l8.532,4.492a6.471,6.471,0,0,1,3.535,5.7v21.2a6.471,6.471,0,0,1-3.535,5.7l-8.532,4.492a6.706,6.706,0,0,0-2.616,2.441L490.03,281.558a6.252,6.252,0,0,0-.918,3.372l.17,9.265a6.459,6.459,0,0,1-3.43,5.757l-19.333,10.6a7.173,7.173,0,0,1-6.964-.057l-8.363-4.772a7.134,7.134,0,0,0-3.534-.931h-26.7a7.146,7.146,0,0,0-3.534.931l-8.363,4.772a7.173,7.173,0,0,1-6.964.057l-19.333-10.6a6.459,6.459,0,0,1-3.43-5.757l.17-9.265a6.263,6.263,0,0,0-.918-3.372L365.245,259.6a6.7,6.7,0,0,0-2.616-2.441l-8.532-4.492a6.471,6.471,0,0,1-3.535-5.7v-21.2a6.471,6.471,0,0,1,3.535-5.7l8.532-4.492a6.714,6.714,0,0,0,2.616-2.441l13.348-21.957a6.263,6.263,0,0,0,.918-3.371l-.17-9.265a6.459,6.459,0,0,1,3.43-5.757l19.333-10.6a7.173,7.173,0,0,1,6.964.057l8.363,4.772a7.134,7.134,0,0,0,3.534.93h26.7a7.146,7.146,0,0,0,3.534-.93l8.363-4.772a7.173,7.173,0,0,1,6.964-.057l19.333,10.6a6.459,6.459,0,0,1,3.43,5.757l-.17,9.265a6.263,6.263,0,0,0,.918,3.371l13.348,21.957A6.7,6.7,0,0,0,505.993,215.576Zm-71.682-9.968c-17.887,0-32.387,13.772-32.387,30.761s14.5,30.761,32.387,30.761S466.7,253.357,466.7,236.368,452.2,205.608,434.311,205.608Z" transform="translate(-350.562 -161.308)" fill="#fdbf43"/>
          <g id="Group_657" data-name="Group 657" transform="translate(101.875 0)">
            <path id="Path_667" data-name="Path 667" d="M501.83,220.068l-8.532-4.492a6.706,6.706,0,0,1-2.616-2.441l-13.348-21.957a6.263,6.263,0,0,1-.918-3.371l.17-9.265a6.46,6.46,0,0,0-3.429-5.757l-19.333-10.6a7.173,7.173,0,0,0-6.964.057l-7.119,4.063,11.819,6.482a6.458,6.458,0,0,1,3.429,5.757l-.17,9.265a6.263,6.263,0,0,0,.918,3.371l13.348,21.957a6.706,6.706,0,0,0,2.616,2.441l8.532,4.492a6.472,6.472,0,0,1,3.535,5.7v21.2a6.47,6.47,0,0,1-3.535,5.7l-8.532,4.492a6.705,6.705,0,0,0-2.616,2.441l-13.348,21.957a6.263,6.263,0,0,0-.918,3.371l.17,9.265a6.46,6.46,0,0,1-3.429,5.757l-11.819,6.482,7.119,4.063a7.173,7.173,0,0,0,6.964.057l19.333-10.6a6.455,6.455,0,0,0,3.429-5.757l-.17-9.265a6.263,6.263,0,0,1,.918-3.371L490.682,259.6a6.7,6.7,0,0,1,2.616-2.441l8.532-4.492a6.471,6.471,0,0,0,3.535-5.7v-21.2a6.473,6.473,0,0,0-3.535-5.7Z" transform="translate(-439.742 -161.308)" fill="#efa30a"/>
          </g>
        </g>
        <g id="Group_660" data-name="Group 660" transform="translate(0 0)">
          <path id="Path_668" data-name="Path 668" d="M211.244,215.576l8.532,4.492a6.471,6.471,0,0,1,3.535,5.7v21.2a6.471,6.471,0,0,1-3.535,5.7l-8.532,4.492a6.713,6.713,0,0,0-2.616,2.441L195.28,281.558a6.252,6.252,0,0,0-.918,3.372l.17,9.265a6.459,6.459,0,0,1-3.43,5.757l-19.333,10.6a7.173,7.173,0,0,1-6.964-.057l-8.363-4.772a7.134,7.134,0,0,0-3.534-.931h-26.7a7.145,7.145,0,0,0-3.534.931l-8.363,4.772a7.173,7.173,0,0,1-6.964.057l-19.332-10.6a6.459,6.459,0,0,1-3.43-5.757l.17-9.265a6.263,6.263,0,0,0-.918-3.371L70.5,259.6a6.705,6.705,0,0,0-2.616-2.441l-8.532-4.492a6.471,6.471,0,0,1-3.535-5.7v-21.2a6.471,6.471,0,0,1,3.535-5.7l8.532-4.492a6.713,6.713,0,0,0,2.616-2.441L83.844,191.18a6.252,6.252,0,0,0,.918-3.372l-.17-9.265a6.459,6.459,0,0,1,3.43-5.757l19.333-10.6a7.173,7.173,0,0,1,6.964.057l8.363,4.772a7.133,7.133,0,0,0,3.534.93h26.7a7.146,7.146,0,0,0,3.534-.93l8.363-4.772a7.173,7.173,0,0,1,6.964-.057l19.333,10.6a6.459,6.459,0,0,1,3.43,5.757l-.17,9.265a6.263,6.263,0,0,0,.918,3.372l13.348,21.957a6.713,6.713,0,0,0,2.615,2.439Zm-71.681-9.968c-17.887,0-32.387,13.772-32.387,30.761s14.5,30.761,32.387,30.761,32.387-13.772,32.387-30.761S157.45,205.608,139.563,205.608Z" transform="translate(-55.814 -161.308)" fill="#fdbf43"/>
          <g id="Group_659" data-name="Group 659" transform="translate(101.875)">
            <path id="Path_669" data-name="Path 669" d="M207.082,220.068l-8.532-4.492a6.706,6.706,0,0,1-2.616-2.441l-13.348-21.957a6.263,6.263,0,0,1-.918-3.371l.17-9.265a6.46,6.46,0,0,0-3.429-5.757l-19.333-10.6a7.173,7.173,0,0,0-6.964.057l-7.119,4.063,11.819,6.482a6.455,6.455,0,0,1,3.429,5.757l-.17,9.265a6.263,6.263,0,0,0,.918,3.371l13.348,21.957a6.705,6.705,0,0,0,2.616,2.441l8.532,4.492a6.472,6.472,0,0,1,3.535,5.7v21.2a6.47,6.47,0,0,1-3.535,5.7l-8.532,4.492a6.705,6.705,0,0,0-2.616,2.441l-13.348,21.957a6.263,6.263,0,0,0-.918,3.371l.17,9.265a6.46,6.46,0,0,1-3.429,5.757l-11.819,6.482,7.119,4.063a7.173,7.173,0,0,0,6.964.057l19.333-10.6a6.455,6.455,0,0,0,3.429-5.757l-.17-9.265a6.262,6.262,0,0,1,.918-3.371L195.934,259.6a6.7,6.7,0,0,1,2.616-2.441l8.532-4.492a6.471,6.471,0,0,0,3.535-5.7v-21.2a6.473,6.473,0,0,0-3.535-5.7Z" transform="translate(-144.994 -161.308)" fill="#efa30a"/>
          </g>
        </g>
      </g>
      <g id="Group_662" data-name="Group 662" transform="translate(0)">
        <path id="Path_670" data-name="Path 670" d="M564.446,274.523l-.466.016c-14.329.512-26.7,10.075-30.076,23.256l-9.914,38.666c-9.417,36.721-35.32,67.3-71.068,83.9a12.5,12.5,0,0,1-12.67-1.146,11.106,11.106,0,0,1-4.682-11.241L443.4,365.4c2.358-12.829-6.327-24.882-19.772-27.442a25.484,25.484,0,0,0-26.035,10.509L346.935,423.62a19.326,19.326,0,0,0-23.971,1.821l-36.742,34.9a8.481,8.481,0,0,0,0,12.43L392.906,574.1a9.608,9.608,0,0,0,13.088,0l36.742-34.9a17.008,17.008,0,0,0,1.027-23.859,291.952,291.952,0,0,0,34.2-21.226,8.5,8.5,0,0,0,1.778-12.314,9.581,9.581,0,0,0-12.965-1.689,284.444,284.444,0,0,1-36.561,22.261l-69.741-66.239,52.7-78.185a6.684,6.684,0,0,1,6.812-2.752,6.223,6.223,0,0,1,5.175,7.182l-7.826,42.574a28.333,28.333,0,0,0,11.8,28.316,31.9,31.9,0,0,0,31.917,2.885c40.7-18.9,70.2-53.72,80.921-95.532l9.914-38.666c3.191-12.45,22.046-13.029,20.935-2.119-6.09,59.638-34.153,115.747-79.018,157.992a8.48,8.48,0,0,0-.057,12.429,9.6,9.6,0,0,0,13.086.054c47.927-45.127,77.9-105.067,84.409-168.779C592.747,286.775,580.256,273.99,564.446,274.523Zm-165,280.929L305.859,466.56l30.275-28.689,93.515,88.9Z" transform="translate(40.359 23.331)"/>
        <path id="Path_671" data-name="Path 671" d="M172.531,148.241l12.3,6.476a.642.642,0,0,1,.247.231l19.25,31.666a.58.58,0,0,1,.086.318l-.246,13.361a18.033,18.033,0,0,0,9.572,16.069l27.883,15.288a20.024,20.024,0,0,0,19.437-.159l12.064-6.885a.668.668,0,0,1,.328-.084h38.5a.666.666,0,0,1,.332.087l12.061,6.884a20.026,20.026,0,0,0,19.435.159l27.883-15.289a18.032,18.032,0,0,0,9.572-16.069L381,186.932a.585.585,0,0,1,.085-.316l19.253-31.669a.628.628,0,0,1,.242-.227l12.306-6.478a18.069,18.069,0,0,0,9.866-15.907v-30.58a18.07,18.07,0,0,0-9.866-15.907l-12.3-6.476a.649.649,0,0,1-.248-.232L399.22,77.31A9.525,9.525,0,0,0,386.58,74.1,8.551,8.551,0,0,0,383.2,86.1l1.109,1.827a18.723,18.723,0,0,0,7.3,6.814l12.3,6.477a.61.61,0,0,1,.333.534v30.58a.607.607,0,0,1-.331.533l-12.31,6.48a18.718,18.718,0,0,0-7.3,6.811l-19.253,31.669a17.494,17.494,0,0,0-2.561,9.41l.244,13.361a.6.6,0,0,1-.321.539L334.53,216.428a.675.675,0,0,1-.649-.006l-12.06-6.882a19.929,19.929,0,0,0-9.863-2.6h-38.5a19.9,19.9,0,0,0-9.862,2.6l-12.062,6.882a.666.666,0,0,1-.649,0L223,201.138a.606.606,0,0,1-.322-.54l.246-13.361a17.492,17.492,0,0,0-2.563-9.411l-19.25-31.666a18.724,18.724,0,0,0-7.3-6.814l-12.306-6.478a.606.606,0,0,1-.331-.533v-30.58a.609.609,0,0,1,.329-.533l12.311-6.48a18.718,18.718,0,0,0,7.3-6.811l19.253-31.669a17.5,17.5,0,0,0,2.561-9.41L222.68,33.49a.6.6,0,0,1,.321-.538L250.887,17.66a.666.666,0,0,1,.649.007L263.6,24.551a19.931,19.931,0,0,0,9.861,2.6h38.5a19.933,19.933,0,0,0,9.862-2.6l12.061-6.882a.666.666,0,0,1,.65-.006l27.886,15.292a.6.6,0,0,1,.318.537l-.244,13.362a17.506,17.506,0,0,0,1.874,8.121A9.476,9.476,0,0,0,376.7,59.136a8.6,8.6,0,0,0,4.384-11.712.654.654,0,0,1-.083-.267l.244-13.361a18.027,18.027,0,0,0-9.572-16.068L343.786,2.437a20.022,20.022,0,0,0-19.438.161l-12.056,6.88a.675.675,0,0,1-.334.089h-38.5a.678.678,0,0,1-.332-.087L261.067,2.6a20.028,20.028,0,0,0-19.438-.163L213.746,17.726a18.033,18.033,0,0,0-9.573,16.069l.246,13.361a.586.586,0,0,1-.085.316L185.08,79.14a.629.629,0,0,1-.242.227l-12.311,6.479a18.074,18.074,0,0,0-9.861,15.906v30.58a18.069,18.069,0,0,0,9.864,15.908Z" transform="translate(23.156 0)"/>
        <path id="Path_672" data-name="Path 672" d="M283.474,58.886c-30.858,0-55.963,23.845-55.963,53.154s25.106,53.153,55.963,53.153,55.964-23.845,55.964-53.153-25.1-53.154-55.964-53.154Zm0,88.73c-20.653,0-37.455-15.959-37.455-35.575s16.8-35.577,37.455-35.577,37.457,15.96,37.457,35.576S304.127,147.616,283.474,147.616Z" transform="translate(32.387 5.005)"/>
        <path id="Path_673" data-name="Path 673" d="M429.064,273.137c22.96,0,41.641-17.742,41.641-39.55s-18.68-39.55-41.641-39.55-41.642,17.742-41.642,39.55S406.1,273.137,429.064,273.137Zm0-61.521c12.755,0,23.133,9.857,23.133,21.971s-10.378,21.971-23.133,21.971-23.134-9.857-23.134-21.971,10.379-21.971,23.134-21.971Z" transform="translate(55.151 16.492)"/>
        <path id="Path_674" data-name="Path 674" d="M371.241,179.383l.159,8.633-12.685,20.868-7.947,4.185a15.2,15.2,0,0,0-8.3,13.388v21.2a15.208,15.208,0,0,0,8.3,13.387l7.95,4.186L371.4,286.1l-.159,8.634a15.178,15.178,0,0,0,8.054,13.522l19.334,10.6a16.861,16.861,0,0,0,16.357-.135l7.792-4.447h25.37l7.792,4.447a16.863,16.863,0,0,0,16.358.135l19.332-10.6a15.173,15.173,0,0,0,8.056-13.522l-.159-8.634,12.685-20.866,7.953-4.187a15.212,15.212,0,0,0,8.3-13.386v-21.2a15.2,15.2,0,0,0-8.3-13.386l-7.952-4.187-12.685-20.866.159-8.633a15.175,15.175,0,0,0-8.054-13.522l-19.334-10.6a16.864,16.864,0,0,0-16.357.136l-7.792,4.447h-25.37l-7.792-4.447a16.866,16.866,0,0,0-16.358-.136l-19.334,10.6a15.176,15.176,0,0,0-8.053,13.521Zm18.529,1.031,16.891-9.262,7.156,4.084a16.764,16.764,0,0,0,8.3,2.184h26.7a16.78,16.78,0,0,0,8.3-2.186l7.155-4.083,16.891,9.262-.146,7.927a14.7,14.7,0,0,0,2.157,7.92l13.345,21.953a15.742,15.742,0,0,0,6.143,5.738l7.3,3.844V246.32l-7.3,3.844a15.755,15.755,0,0,0-6.14,5.733l-13.346,21.955a14.712,14.712,0,0,0-2.158,7.923l.146,7.927-16.891,9.261-7.156-4.083a16.764,16.764,0,0,0-8.3-2.184H422.116a16.789,16.789,0,0,0-8.3,2.186l-7.154,4.082L389.77,293.7l.146-7.927a14.71,14.71,0,0,0-2.157-7.921L374.414,255.9a15.736,15.736,0,0,0-6.144-5.737l-7.3-3.843V227.8l7.292-3.839a15.726,15.726,0,0,0,6.149-5.738l13.344-21.952a14.707,14.707,0,0,0,2.16-7.925Z" transform="translate(48.751 13.022)"/>
        <path id="Path_675" data-name="Path 675" d="M134.316,273.137c22.96,0,41.641-17.742,41.641-39.55s-18.68-39.55-41.641-39.55-41.641,17.742-41.641,39.55S111.355,273.137,134.316,273.137Zm0-61.521c12.755,0,23.133,9.857,23.133,21.971s-10.378,21.971-23.133,21.971-23.133-9.857-23.133-21.971,10.378-21.971,23.133-21.971Z" transform="translate(13.192 16.492)"/>
        <path id="Path_676" data-name="Path 676" d="M56.016,261.045l7.952,4.186L76.652,286.1l-.16,8.634a15.177,15.177,0,0,0,8.056,13.522l19.332,10.6a16.859,16.859,0,0,0,16.359-.134l7.792-4.447H153.4l7.793,4.447a16.861,16.861,0,0,0,16.357.135l19.332-10.6a15.176,15.176,0,0,0,8.057-13.523l-.16-8.633,12.684-20.866,7.955-4.187a15.213,15.213,0,0,0,8.3-13.386v-21.2a15.206,15.206,0,0,0-8.3-13.386l-7.952-4.187-12.685-20.866.16-8.633a15.177,15.177,0,0,0-8.056-13.522l-19.332-10.6a16.852,16.852,0,0,0-16.357.135l-7.794,4.447H128.03l-7.794-4.448a16.861,16.861,0,0,0-16.356-.135l-19.332,10.6a15.176,15.176,0,0,0-8.057,13.523l.16,8.632L63.968,208.881l-7.951,4.186a15.208,15.208,0,0,0-8.3,13.387v21.2a15.209,15.209,0,0,0,8.3,13.388Zm10.205-33.251,7.292-3.839a15.745,15.745,0,0,0,6.151-5.737l13.349-21.959a14.724,14.724,0,0,0,2.156-7.92l-.147-7.924,16.892-9.264,7.153,4.082a16.76,16.76,0,0,0,8.3,2.187h26.7a16.774,16.774,0,0,0,8.3-2.186l7.156-4.083,16.891,9.264-.147,7.925a14.719,14.719,0,0,0,2.157,7.92l13.349,21.96a15.756,15.756,0,0,0,6.149,5.736l7.292,3.839v18.526l-7.3,3.843a15.75,15.75,0,0,0-6.143,5.734l-13.35,21.962a14.72,14.72,0,0,0-2.154,7.917l.147,7.924-16.892,9.262-7.153-4.08a16.759,16.759,0,0,0-8.3-2.187h-26.7a16.774,16.774,0,0,0-8.3,2.186l-7.155,4.082L95.021,293.7l.147-7.925a14.726,14.726,0,0,0-2.157-7.921L79.662,255.9a15.762,15.762,0,0,0-6.143-5.732l-7.3-3.843V227.794Z" transform="translate(6.792 13.021)"/>
        <path id="Path_677" data-name="Path 677" d="M268.4,425.44a19.326,19.326,0,0,0-23.971-1.821l-50.654-75.152a25.474,25.474,0,0,0-26.036-10.508c-13.444,2.558-22.13,14.612-19.771,27.441l7.825,42.574a11.108,11.108,0,0,1-4.682,11.241,12.5,12.5,0,0,1-12.67,1.145c-35.748-16.6-61.651-47.181-71.066-83.9l-9.915-38.666c-3.379-13.181-15.747-22.744-30.082-23.256l-.454-.016c-15.687-.571-28.312,12.17-26.8,27.009C9.314,391.543,64.429,471.4,147.6,515.335a17.007,17.007,0,0,0,1.022,23.864l36.742,34.9a9.606,9.606,0,0,0,13.087,0l41.064-39a8.481,8.481,0,0,0,0-12.43,9.606,9.606,0,0,0-13.087,0l-34.513,32.78-30.205-28.753,93.6-88.82,30.2,28.683-32.919,31.263a8.481,8.481,0,0,0,0,12.43,9.6,9.6,0,0,0,13.086,0l39.46-37.478a8.483,8.483,0,0,0,0-12.431ZM18.544,299.835a7.236,7.236,0,0,1,7.687-7.745l.459.016a13.388,13.388,0,0,1,12.786,9.847l9.915,38.666c10.721,41.811,40.216,76.631,80.92,95.532a31.9,31.9,0,0,0,31.917-2.885,28.332,28.332,0,0,0,11.8-28.316L166.2,362.377a6.224,6.224,0,0,1,5.173-7.182,6.665,6.665,0,0,1,6.813,2.752l52.7,78.185L161.142,502.37c-1.12-.988-127.784-57.461-142.6-202.535Z" transform="translate(0 23.33)"/>
      </g>
    </g>
  </g>
</svg>
