<svg xmlns="http://www.w3.org/2000/svg" xmlns:xlink="http://www.w3.org/1999/xlink" width="300" height="300" viewBox="0 0 300 300">
  <defs>
    <clipPath id="clip-path">
      <circle id="Ellipse_129" data-name="Ellipse 129" cx="150" cy="150" r="150" fill="#fff" stroke="#707070" stroke-width="1"/>
    </clipPath>
  </defs>
  <g id="Mask_Group_14" data-name="Mask Group 14" clip-path="url(#clip-path)">
    <g id="check-mark_1_" data-name="check-mark (1)">
      <path id="Path_613" data-name="Path 613" d="M288.78,144.733c0,79.093-64.306,143.212-143.63,143.212S1.523,223.825,1.523,144.733,65.827,1.523,145.151,1.523,288.78,65.64,288.78,144.733Zm0,0" transform="translate(4.315 4.298)" fill="#3cadc9"/>
      <path id="Path_614" data-name="Path 614" d="M150.392,21.3,80.816,90.679,50.36,60.311,17.331,93.244l30.456,30.367,33.029,32.93,102.6-102.3Zm0,0" transform="translate(49.09 60.108)" fill="#fff"/>
      <path id="Path_615" data-name="Path 615" d="M85.131,166.661A5.847,5.847,0,0,1,81,164.955l-63.484-63.3a5.81,5.81,0,0,1,0-8.234l33.026-32.93a5.851,5.851,0,0,1,8.258,0L85.131,86.745l65.446-65.258a5.851,5.851,0,0,1,8.258,0l33.026,32.932a5.807,5.807,0,0,1,0,8.232L89.26,164.957a5.845,5.845,0,0,1-4.128,1.7ZM29.9,97.542l55.226,55.066,94.347-94.072-24.77-24.7L89.259,99.093a5.848,5.848,0,0,1-8.256,0L54.675,72.841Zm0,0" transform="translate(44.775 55.81)"/>
      <path id="Path_616" data-name="Path 616" d="M149.429,298.061q-5.72,0-11.456-.437a149.67,149.67,0,0,1-94.2-43.211A149.032,149.032,0,0,1,149.466,0,148.977,148.977,0,0,1,270.945,235.9a5.833,5.833,0,0,1-9.481-6.8A136.5,136.5,0,0,0,246.9,51.882c-53.723-53.567-141.139-53.567-194.862,0A137.566,137.566,0,0,0,229.77,260.7a5.828,5.828,0,1,1,6.815,9.455,149.742,149.742,0,0,1-87.155,27.9Zm0,0" transform="translate(0 0)"/>
      <path id="Path_617" data-name="Path 617" d="M69.816,75.62a5.832,5.832,0,1,1,4.128-1.706A5.89,5.89,0,0,1,69.816,75.62Zm0,0" transform="translate(181.212 180.499)"/>
    </g>
  </g>
</svg>
