<svg xmlns="http://www.w3.org/2000/svg" xmlns:xlink="http://www.w3.org/1999/xlink" width="650" height="620" viewBox="0 0 650 620">
  <defs>
    <clipPath id="clip-path">
      <rect id="Rectangle_388" data-name="Rectangle 388" width="650" height="620" transform="translate(2964 -24)" fill="#fff" stroke="#707070" stroke-width="1"/>
    </clipPath>
  </defs>
  <g id="Mask_Group_18" data-name="Mask Group 18" transform="translate(-2964 24)" clip-path="url(#clip-path)">
    <g id="infographic" transform="translate(3001.143 -24)">
      <path id="Path_678" data-name="Path 678" d="M27.9,27.9H584.424v62H27.9Z" transform="translate(-18.305 -17.567)" fill="#50b6cf"/>
      <path id="Path_679" data-name="Path 679" d="M55.8,83.7H554.752V538.367H55.8Z" transform="translate(-17.419 -11.367)" fill="#ded8d0"/>
      <path id="Path_680" data-name="Path 680" d="M554.752,232.5C448.784,348.078,301.486,433.335,55.8,457.729v64.1H554.752Z" transform="translate(-17.419 5.167)" fill="#c9c4bd"/>
      <path id="Path_681" data-name="Path 681" d="M27.9,492.9H584.424v41.333H27.9Z" transform="translate(-18.305 34.1)" fill="#50b6cf"/>
      <ellipse id="Ellipse_130" data-name="Ellipse 130" cx="19.19" cy="20.667" rx="19.19" ry="20.667" transform="translate(230.286 444.333)" fill="#e34e4b"/>
      <path id="Path_694" data-name="Path 694" d="M19.19,0c10.6,0,19.19,9.253,19.19,20.667S29.789,41.333,19.19,41.333,0,32.081,0,20.667,8.592,0,19.19,0Z" transform="translate(307.048 372)" fill="#e34e4b"/>
      <ellipse id="Ellipse_132" data-name="Ellipse 132" cx="19.19" cy="20.667" rx="19.19" ry="20.667" transform="translate(383.81 434)" fill="#e34e4b"/>
      <ellipse id="Ellipse_133" data-name="Ellipse 133" cx="19.19" cy="20.667" rx="19.19" ry="20.667" transform="translate(460.571 361.667)" fill="#e34e4b"/>
      <ellipse id="Ellipse_134" data-name="Ellipse 134" cx="57.571" cy="62" rx="57.571" ry="62" transform="translate(115.143 155)" fill="#f5a947"/>
      <path id="Path_682" data-name="Path 682" d="M226.71,176.259A55.416,55.416,0,0,0,186,158.1v62Z" transform="translate(-13.286 -3.1)" fill="#3e83a8"/>
      <path id="Path_683" data-name="Path 683" d="M325.5,232.5h38.381v62H325.5Z" transform="translate(-8.857 5.167)" fill="#f5a947"/>
      <path id="Path_684" data-name="Path 684" d="M362.7,176.7h38.381v124H362.7Z" transform="translate(-7.676 -1.033)" fill="#f5a947"/>
      <path id="Path_685" data-name="Path 685" d="M399.9,204.6h38.381v93H399.9Z" transform="translate(-6.495 2.067)" fill="#f5a947"/>
      <path id="Path_686" data-name="Path 686" d="M437.1,130.2h38.381V305.867H437.1Z" transform="translate(-5.314 -6.2)" fill="#f5a947"/>
      <g id="Group_663" data-name="Group 663">
        <path id="Path_687" data-name="Path 687" d="M584.719,18.6H28.2c-5.3,0-9.6,4.622-9.6,10.333v62c0,5.712,4.3,10.333,9.6,10.333h19.19v434H28.2c-5.3,0-9.6,4.622-9.6,10.333v41.333c0,5.712,4.3,10.333,9.6,10.333H258.481V607.6c0,17.094,12.912,31,28.786,31h38.381c15.873,0,28.786-13.906,28.786-31V597.267H584.719c5.3,0,9.6-4.622,9.6-10.333V545.6c0-5.712-4.3-10.333-9.6-10.333h-19.19v-434h19.19c5.3,0,9.6-4.622,9.6-10.333v-62C594.314,23.222,590.018,18.6,584.719,18.6Zm-249.476,589c0,5.7-4.306,10.333-9.6,10.333H287.267c-5.29,0-9.6-4.632-9.6-10.333V597.267h57.571Zm239.881-31H37.79V555.933H575.124Zm-28.786-41.333H66.576v-434H546.338ZM575.124,80.6H37.79V39.267H575.124Z" transform="translate(-18.6 -18.6)" fill="#0d0f23"/>
        <path id="Path_688" data-name="Path 688" d="M465.148,365.8a32.811,32.811,0,0,0,2.08,11.412l-36.044,34.01a26.9,26.9,0,0,0-14.012-4.089,27.177,27.177,0,0,0-15.934,5.213l-33.476-27.036a32.708,32.708,0,0,0,1.434-9.177c0-17.094-12.912-31-28.786-31s-28.786,13.906-28.786,31a32.811,32.811,0,0,0,2.08,11.412l-36.044,34.01a26.9,26.9,0,0,0-14.012-4.089c-12.492,0-23.044,8.665-27.018,20.667H158.1V458.8h78.531c3.974,12,14.525,20.667,27.017,20.667,15.873,0,28.786-13.906,28.786-31a32.814,32.814,0,0,0-2.08-11.412l36.044-34.01a26.9,26.9,0,0,0,14.012,4.089,27.177,27.177,0,0,0,15.934-5.213l33.476,27.036a32.707,32.707,0,0,0-1.434,9.177c0,17.094,12.912,31,28.786,31s28.786-13.906,28.786-31a32.814,32.814,0,0,0-2.08-11.412l36.044-34.01a26.9,26.9,0,0,0,14.012,4.089c15.873,0,28.786-13.906,28.786-31s-12.912-31-28.786-31S465.148,348.706,465.148,365.8Zm-201.5,93c-5.29,0-9.6-4.632-9.6-10.333s4.306-10.333,9.6-10.333,9.6,4.632,9.6,10.333S268.937,458.8,263.648,458.8Zm76.762-72.333c-5.29,0-9.6-4.632-9.6-10.333s4.306-10.333,9.6-10.333,9.6,4.632,9.6,10.333S345.7,386.467,340.41,386.467Zm76.762,62c-5.29,0-9.6-4.632-9.6-10.333s4.306-10.333,9.6-10.333,9.6,4.632,9.6,10.333S422.461,448.467,417.171,448.467ZM503.529,365.8c0,5.7-4.306,10.333-9.6,10.333s-9.6-4.632-9.6-10.333,4.306-10.333,9.6-10.333S503.529,360.1,503.529,365.8Z" transform="translate(-14.171 16.533)" fill="#0d0f23"/>
        <path id="Path_689" data-name="Path 689" d="M188.067,293.467c37.036,0,67.167-32.453,67.167-72.333S225.1,148.8,188.067,148.8,120.9,181.253,120.9,221.133,151.03,293.467,188.067,293.467Zm9.6-122.955a45.9,45.9,0,0,1,16.82,7.563l-16.82,18.114Zm-19.19,0v50.622a10.367,10.367,0,0,0,5.922,9.546,8.927,8.927,0,0,0,3.673.787,9.25,9.25,0,0,0,6.784-3.027l33.2-35.753a54.164,54.164,0,0,1,7.993,28.447c0,28.487-21.524,51.667-47.976,51.667s-47.976-23.179-47.976-51.667c0-24.949,16.511-45.821,38.381-50.622Z" transform="translate(-15.352 -4.133)" fill="#0d0f23"/>
        <path id="Path_690" data-name="Path 690" d="M189.248,338.933c58.2,0,105.548-50.991,105.548-113.667S247.447,111.6,189.248,111.6v20.667c47.615,0,86.357,41.717,86.357,93s-38.742,93-86.357,93-86.357-41.717-86.357-93H83.7C83.7,287.943,131.048,338.933,189.248,338.933Z" transform="translate(-16.533 -8.267)" fill="#0d0f23"/>
        <path id="Path_691" data-name="Path 691" d="M364.767,317.233H508.7V296.567H489.5V131.233c0-5.712-4.3-10.333-9.6-10.333H441.529c-5.3,0-9.6,4.622-9.6,10.333v72.333h-19.19V182.9c0-5.712-4.3-10.333-9.6-10.333H364.767c-5.3,0-9.6,4.622-9.6,10.333v51.667H326.386c-5.3,0-9.6,4.622-9.6,10.333v51.667H297.6v20.667h67.167Zm86.357-175.667h19.19v155h-19.19v-155Zm-19.19,82.667v72.333h-19.19V224.233Zm-57.571-31h19.19V296.567h-19.19V193.233Zm-38.381,62h19.19v41.333h-19.19Z" transform="translate(-9.743 -7.233)" fill="#0d0f23"/>
        <path id="Path_692" data-name="Path 692" d="M120.9,427.8h19.19v20.667H120.9Z" transform="translate(-15.352 26.867)" fill="#0d0f23"/>
        <path id="Path_693" data-name="Path 693" d="M83.7,427.8h19.19v20.667H83.7Z" transform="translate(-16.533 26.867)" fill="#0d0f23"/>
      </g>
    </g>
  </g>
</svg>
